<?xml version="1.0" encoding="UTF-8"?>
<svg width="559px" height="559px" viewBox="0 0 559 559" version="1.1" xmlns="http://www.w3.org/2000/svg" xmlns:xlink="http://www.w3.org/1999/xlink">
    <!-- Generator: Sketch 50.2 (55047) - http://www.bohemiancoding.com/sketch -->
    <title>Group 6</title>
    <desc>Created with Sketch.</desc>
    <defs>
        <linearGradient x1="50%" y1="0%" x2="50%" y2="100%" id="linearGradient-1">
            <stop stop-color="#59ADD9" offset="0%"></stop>
            <stop stop-color="#764ABC" offset="100%"></stop>
        </linearGradient>
        <linearGradient x1="50%" y1="0%" x2="50%" y2="100%" id="linearGradient-2">
            <stop stop-color="#53C1DE" offset="0%"></stop>
            <stop stop-color="#764ABC" offset="100%"></stop>
        </linearGradient>
    </defs>
    <g id="Page-1" stroke="none" stroke-width="1" fill="none" fill-rule="evenodd">
        <g id="Group-6" transform="translate(7.000000, 7.000000)">
            <circle id="Oval-4" stroke="url(#linearGradient-1)" stroke-width="13" fill="#FFFFFF" cx="272.5" cy="272.5" r="272.5"></circle>
            <g id="002-dna" transform="translate(167.000000, 70.000000)">
                <path d="M193.784964,371.507762 L17.2150355,371.507762 C15.8696673,382.159474 15.192,393.293937 15.192,405 L0,405 C0,357.331751 10.7204428,318.154729 31.5073075,282.704873 C37.4784374,272.521726 44.2436148,262.677107 52.0285853,252.709628 L52.0285853,252.508324 L52.1859362,252.508324 C55.7479923,247.954919 59.5231146,243.375235 63.5328138,238.725307 C72.3136541,228.542431 79.7817414,220.57537 94.8875143,205.069365 C80.340958,190.126158 72.9883298,182.267321 64.371543,172.274693 C59.2203089,166.300962 54.456229,160.443162 50.0336945,154.608078 L49.4965853,154.608078 L49.4965853,153.897297 C43.1087946,145.418661 37.4386265,136.980014 32.3460368,128.295127 C11.559172,92.8452713 0.838729227,53.6682488 0.838729227,6 L16.0307292,6 C16.0307292,16.2912002 16.5544826,26.1406233 17.5952176,35.6086398 L193.404782,35.6086398 C194.445517,26.1406233 194.969271,16.2912002 194.969271,6 L210.161271,6 C210.161271,53.6682488 199.440828,92.8452713 178.653963,128.295127 C169.915329,143.197967 159.476023,157.375757 146.628457,172.274693 C138.01167,182.267321 130.659042,190.126158 116.112486,205.069365 C131.218259,220.57537 138.686346,228.542431 147.467186,238.725307 C160.314752,253.624243 170.754058,267.802033 179.492692,282.704873 C200.279557,318.154729 211,357.331751 211,405 L195.808,405 C195.808,393.293937 195.130333,382.159474 193.784964,371.507762 Z M192.134235,360.536183 C189.519131,345.616207 185.517261,331.639424 180.15869,318.3378 L30.8413098,318.3378 C25.4827394,331.639424 21.4808692,345.616207 18.8657651,360.536183 L192.134235,360.536183 Z M60.7916534,143.636498 L150.208347,143.636498 C155.914775,135.985454 160.988191,128.388569 165.548681,120.611123 C169.218458,114.352696 172.551671,107.973005 175.544514,101.438116 L35.4554859,101.438116 C38.4483286,107.973005 41.7815416,114.352696 45.4513188,120.611123 C50.0118089,128.388569 55.0852251,135.985454 60.7916509,143.636495 Z M69.3703926,154.608075 C71.4625316,157.169231 73.6299282,159.74846 75.8769071,162.354213 C84.1859424,171.989952 91.3511665,179.653268 105.5,194.191936 C119.648834,179.653268 126.814058,171.989952 135.123093,162.354213 C137.370072,159.74846 139.537468,157.169231 141.629607,154.608075 L69.3703946,154.608078 Z M175.362138,307.366221 C172.637557,301.595723 169.645094,295.94452 166.38741,290.388877 C161.056445,281.297465 155.0246,272.452777 148.100067,263.479904 L62.8999334,263.479904 C55.9754005,272.452777 49.9435551,281.297465 44.6125896,290.388877 C41.3549063,295.94452 38.362443,301.595723 35.6378621,307.366221 L175.362138,307.366221 Z M30.8102469,90.4665366 L180.189753,90.4665366 C185.563049,76.6696988 189.491289,62.1389608 191.941485,46.5802191 L19.0585155,46.5802191 C21.5087108,62.1389608 25.4369512,76.6696988 30.8102469,90.4665366 Z M71.7497534,252.508324 L139.250247,252.508324 C138.173368,251.22666 137.077403,249.939493 135.961822,248.645787 C127.490185,238.821484 120.207565,231.047557 105.5,215.946567 C90.792435,231.047557 83.5098145,238.821484 75.0381778,248.645787 C73.9225966,249.939493 72.8266319,251.22666 71.7497543,252.508324 Z" id="Path-2" fill="url(#linearGradient-2)" fill-rule="nonzero"></path>
                <g id="Group-2" transform="translate(39.000000, 329.000000)">
                    <path d="M39.4504926,74 C60.9899463,74 82.7557508,65.8019698 78.4511236,44.6408286 C76.1916796,33.5336151 67.4259791,29.2419138 63.2440378,23.7049893 C55.6692797,13.6759478 60.1510716,1.67526637 39.7690063,0.11148835 C19.386941,-1.45228967 21.3055198,13.7869682 14.2413113,23.7049893 C9.7368916,30.0291132 2.29873227,34.4327509 0.449861539,44.6408286 C-3.38124683,65.7933361 17.9110388,74 39.4504926,74 Z" id="Oval-2" fill="#FFFFFF"></path>
                    <g id="redux" transform="translate(5.882979, 3.363636)" fill="#764ABC" fill-rule="nonzero" stroke="#764ABC" stroke-width="1.5">
                        <path d="M46.003768,44.0463133 C48.4538479,43.7925188 50.3126097,41.6791221 50.2280615,39.1427345 C50.1437728,36.6066065 48.0313666,34.5775484 45.4967386,34.5775484 L45.3279017,34.5775484 C42.7084662,34.6621465 40.6808676,36.8601414 40.7654157,39.4808676 C40.8499638,40.7490614 41.3567338,41.8480589 42.1171481,42.6089232 C39.244587,48.2733664 34.8511972,52.4158213 28.2611124,55.88201 C23.7831745,58.2492012 19.1363997,59.0946637 14.4896248,58.5029957 C10.6875531,57.9956662 7.73044386,56.3050007 5.87142271,53.5148187 C3.16795781,49.3723638 2.91457281,44.8915163 5.19581584,40.4109283 C6.80119264,37.1982745 9.33556131,34.8310833 10.9409381,33.6474877 C10.603005,32.5484902 10.0959757,30.6886284 9.84259066,29.336096 C-2.40832759,38.2129334 -1.1408839,50.2178263 2.57663969,55.88201 C5.36465272,60.1093225 11.0254862,62.7300487 17.2776379,62.7300487 C18.9673034,62.7300487 20.656969,62.5608524 22.3468939,62.1383807 C33.1615316,60.0247244 41.3569931,53.5994169 46.003768,44.0463133 Z M60.8738623,33.563149 C54.4526145,26.0388441 44.9899686,21.8963892 34.1753309,21.8963892 L32.8235985,21.8963892 C32.0631841,20.3746604 30.4578073,19.3600016 28.6835936,19.3600016 L28.5144974,19.3600016 C25.8955806,19.4445998 23.8679819,21.6425947 23.9522707,24.2635804 C24.0368188,26.7997084 26.1489656,28.8287666 28.6835936,28.8287666 L28.8524305,28.8287666 C30.7111923,28.7441684 32.3165691,27.5605728 32.9924354,25.9542459 L34.513264,25.9542459 C40.9345119,25.9542459 47.0175673,27.8141078 52.5095639,31.4494928 C56.7338575,34.2394152 59.7755149,37.8748003 61.4651805,42.2707901 C62.901461,45.821577 62.8169129,49.2877657 61.2960842,52.2468845 C58.9305524,56.7274725 54.9596438,59.1792619 49.7212916,59.1792619 C46.3417011,59.1792619 43.1312068,58.164603 41.4412819,57.4037387 C40.5120307,58.2492012 38.8221058,59.6017336 37.6392102,60.4474556 C41.272445,62.1381212 44.9899686,63.0681818 48.538396,63.0681818 C56.6493094,63.0681818 62.648076,58.5873343 64.9293191,54.1067463 C67.379399,49.2031675 67.2103027,40.7490614 60.8738623,33.563149 Z M17.9535041,45.4831844 C18.0380522,48.0195719 20.150199,50.0483705 22.684827,50.0483705 L22.8539233,50.0483705 C25.4730994,49.9640319 27.5006981,47.7657774 27.41615,45.1450513 C27.3318612,42.6086637 25.219455,40.5798651 22.684827,40.5798651 L22.5159901,40.5798651 C22.3468939,40.5798651 22.0932496,40.5798651 21.924672,40.6642037 C18.4605334,34.915422 17.0242529,28.6595703 17.5312822,21.8961297 C17.868956,16.8236141 19.5588809,12.4273647 22.5159901,8.79197972 C24.9660701,5.66392413 29.697393,4.14219541 32.9081466,4.05785676 C41.8637631,3.88866045 45.6655755,15.0480909 45.9192198,19.5289384 C47.0175673,19.7824734 48.8763291,20.3744009 50.1437728,20.7971322 C49.1297141,7.1015737 40.6808676,0 32.5702135,0 C24.9660701,0 17.9535041,5.49524683 15.1652317,13.6112198 C11.2788712,24.4325172 13.8134993,34.8310833 18.5448222,43.0316545 C18.1226003,43.6233225 17.868956,44.5533832 17.9535041,45.4834439 L17.9535041,45.4831844 Z" id="Shape"></path>
                    </g>
                </g>
                <g id="react" transform="translate(87.000000, 0.000000)" fill-rule="nonzero">
                    <path d="M0,40.8526004 C0,47.7405023 6.71081633,54.1702861 17.290465,57.7947241 C15.1777542,68.454393 16.9120583,77.0464367 22.7040404,80.3941399 C28.6573281,83.8354023 37.526636,81.4534035 45.9449318,74.0779894 C54.1507762,81.1555192 62.4438903,83.940791 68.2308651,80.5834093 C74.1787879,77.1324683 75.9874858,67.9579192 73.816476,56.9652365 C84.8360492,53.3139136 91,47.8311939 91,40.8526004 C91,34.1245739 84.2770231,28.3041803 73.8397241,24.7030425 C76.1770467,13.2561848 74.196671,4.87276766 68.1646976,1.3866971 C62.3494674,-1.97426923 53.9597846,0.955105434 45.633408,8.21760307 C36.9708289,0.509175175 28.6641237,-1.84414649 22.6385882,1.65160262 C16.828723,5.02224749 15.1709586,13.7705819 17.290465,24.6274064 C7.06776324,28.1995086 0,34.1518172 0,40.8526004 Z" id="Shape" fill="#FFFFFF"></path>
                    <path d="M72.255533,28.6358397 C71.385599,28.3375045 70.5082844,28.0611311 69.6244243,27.8069825 C69.771,27.2115237 69.9065455,26.613405 70.030991,26.0129334 C72.022589,16.3472722 70.7204181,8.56064328 66.2735044,5.99740597 C62.0099798,3.53904153 55.0368545,6.10227883 47.9942801,12.2293852 C47.3003254,12.8345171 46.6217743,13.457082 45.9592763,14.0964837 C45.5156194,13.6713194 45.0641227,13.2544084 44.6050185,12.8459652 C37.2242414,6.29394302 29.826102,3.53325544 25.3838905,6.10408699 C21.1243448,8.56932241 19.8626858,15.8898095 21.6557028,25.0499113 C21.8340955,25.9570286 22.0355147,26.8594675 22.2597655,27.7563543 C21.2129647,28.0536146 20.2019737,28.3704029 19.2347501,28.7074426 C10.5818243,31.7234413 5.05555556,36.4506758 5.05555556,41.3536628 C5.05555556,46.4179369 10.9876675,51.4973996 20.0008606,54.5770453 C20.7316975,54.825605 21.4686175,55.0559146 22.2109341,55.2677596 C21.9697799,56.2340148 21.7556821,57.2068191 21.5688914,58.1850332 C19.8594304,67.1860175 21.1945173,74.332922 25.4428499,76.7829689 C29.8308042,79.3125746 37.1953042,76.712451 44.3666489,70.4453936 C44.933455,69.9499598 45.5024313,69.4245106 46.0721311,68.8737473 C46.7897075,69.5659296 47.5264437,70.2379797 48.2814811,70.8891143 C55.2278395,76.8650591 62.08811,79.2782197 66.3328255,76.8216634 C70.716801,74.2844635 72.1412313,66.6066854 70.2914251,57.2654068 C70.1503566,56.5519097 69.9857767,55.8232242 69.8013025,55.0811583 C70.3185537,54.9285502 70.8260386,54.7708793 71.3212253,54.606699 C80.6910685,51.5031857 86.787037,46.4855618 86.787037,41.3536628 C86.787037,36.4329559 81.082805,31.673898 72.255533,28.6358397 Z" id="Shape" fill="#53C1DE"></path>
                    <path d="M69.7537961,51.6203721 C69.3157052,51.7668348 68.8659082,51.908284 68.4075977,52.0454361 C67.3930714,48.8035626 66.0238157,45.3561401 64.3487831,41.794842 C65.9475488,38.3176972 67.2635952,34.914679 68.2497431,31.6935753 C69.0695229,31.9335019 69.8655359,32.1859619 70.632461,32.4527459 C78.0498543,35.029987 82.5740741,38.8412385 82.5740741,41.7776532 C82.5740741,44.9056511 77.6876756,48.9664978 69.7541508,51.6203721 L69.7537961,51.6203721 Z M66.4619066,58.2054612 C67.2639499,62.2956721 67.3785275,65.9937641 66.8471428,68.8847002 C66.3696769,71.482353 65.4097789,73.2141215 64.2228541,73.9077599 C61.6968255,75.3838455 56.2946503,73.4651491 50.4692829,68.404489 C49.8013273,67.824368 49.1284055,67.2048562 48.45371,66.5495343 C50.7122726,64.0557304 52.9694162,61.156558 55.1722863,57.9372448 C59.0473511,57.5902465 62.7081593,57.022659 66.0280724,56.2480901 C66.191248,56.9141549 66.3366871,57.5669701 66.4619066,58.2054612 Z M33.1705453,73.6527932 C30.7026923,74.5326433 28.7371363,74.5577103 27.5491473,73.8662204 C25.0206356,72.394432 23.9699269,66.7113952 25.4033887,59.0892504 C25.5738504,58.1884731 25.7690267,57.2926416 25.9886923,56.402789 C29.2717136,57.1358184 32.9059171,57.6632988 36.7902049,57.981291 C39.0076188,61.1314911 41.3300327,64.0270825 43.6705378,66.562784 C43.1731181,67.0485327 42.663927,67.5218447 42.1434274,67.9822899 C39.0335141,70.7267633 35.9172156,72.6733914 33.1709,73.6527932 L33.1705453,73.6527932 Z M21.6088475,51.6010348 C17.7004381,50.2524326 14.4727547,48.4998943 12.2603069,46.5876438 C10.2724029,44.8687668 9.26851852,43.1624234 9.26851852,41.7776532 C9.26851852,38.8315698 13.619985,35.073317 20.8773953,32.5189943 C21.7883049,32.1997907 22.708276,31.9075759 23.6361265,31.6427252 C24.6393014,34.936165 25.954993,38.3796484 27.5427622,41.8618065 C25.9344187,45.3958891 24.5999264,48.8941617 23.5875285,52.2262762 C22.922993,52.0342606 22.2632334,51.8257838 21.6088475,51.6010348 Z M25.4846218,24.9691856 C23.9780857,17.1973552 24.9784228,11.3349106 27.4959379,9.86383846 C30.1776927,8.29679567 36.1069959,10.5313357 42.3566198,16.1330839 C42.7560452,16.4911833 43.1572442,16.8661133 43.5591527,17.2539349 C41.2307084,19.7781773 38.9295783,22.6519246 36.7313198,25.7838616 C32.9616096,26.1365895 29.3529467,26.7031026 26.0355166,27.4619152 C25.8311653,26.6356903 25.6474753,25.8043971 25.4846218,24.9688275 L25.4846218,24.9691856 Z M60.0590395,33.5875628 C59.2754695,32.2212096 58.4628322,30.8720557 57.6216933,29.54104 C60.1792928,29.8669105 62.6294093,30.3002107 64.9301847,30.8305558 C64.2395264,33.0654539 63.378598,35.4024103 62.3647811,37.798095 C61.6240411,36.3792301 60.8553073,34.9754395 60.0590395,33.5875628 Z M45.9596071,19.7241043 C47.5388627,21.4512175 49.1206014,23.3799406 50.6764449,25.4723151 C47.5204206,25.3217631 44.3591306,25.3210461 41.2030395,25.4701666 C42.7603019,23.3971294 44.3555204,21.471271 45.9596071,19.7241043 Z M31.7697186,33.6111973 C30.9834203,34.9880364 30.2290601,36.3832132 29.507254,37.7955883 C28.5101095,35.4081399 27.6569851,33.0607986 26.9602964,30.7940297 C29.2472373,30.2772923 31.6860024,29.8550932 34.2269297,29.5345943 C33.3763641,30.8738588 32.5570679,32.2331011 31.7697186,33.6111973 Z M34.300004,54.2674426 C31.6750058,53.9716525 29.1993488,53.5709393 26.9131174,53.0685259 C27.6208027,50.7616499 28.4927277,48.3638166 29.511156,45.9251599 C30.236005,47.3385819 30.9936801,48.7346004 31.7835531,50.1120576 C32.5895379,51.5171778 33.4285933,52.9026998 34.300004,54.2674426 Z M46.0543198,64.0754259 C44.4314325,62.3074893 42.8128019,60.3522669 41.2317726,58.2491493 C42.7663323,58.3100262 44.3310441,58.3408228 45.9212963,58.3408228 C47.5551803,58.3408228 49.1702636,58.3039385 50.7598063,58.2323187 C49.1989966,60.3737528 47.6229336,62.3318401 46.0543198,64.0754259 Z M62.3974162,45.8008995 C63.4686993,48.2660554 64.3718405,50.6509972 65.0891035,52.9188404 C62.764916,53.4541989 60.2559144,53.8853506 57.6121156,54.2054914 C58.4593342,52.8496248 59.2797494,51.4768777 60.072874,50.088065 C60.8791335,48.6765969 61.6541728,47.2471877 62.3974162,45.8008995 Z M57.1066261,48.3613099 C55.8924581,50.4905529 54.6100245,52.579376 53.2613586,54.6244676 C50.8832522,54.7959972 48.4256864,54.8844478 45.9212963,54.8844478 C43.4271934,54.8844478 41.0008437,54.806024 38.6642407,54.6531156 C37.2805958,52.6127856 35.9739023,50.5203474 34.7469631,48.3802891 C33.5257587,46.2515852 32.3850728,44.0768325 31.3273709,41.8607322 C32.3823825,39.643968 33.5196215,37.4680504 34.7366759,35.3375943 L34.7366759,35.3383105 C35.9533485,33.2074008 37.249755,31.1239094 38.6230921,29.0923416 C41.0068741,28.9104271 43.4509602,28.8151726 45.921651,28.8151726 C48.4033384,28.8151726 50.8506171,28.9111433 53.2336897,29.0944901 C54.5931357,31.1229318 55.8812505,33.1991708 57.0956295,35.3193313 C58.316869,37.4450475 59.4692851,39.6103064 60.5510493,41.8116726 C59.4804127,44.0354673 58.3316618,46.2200643 57.1069808,48.3613099 L57.1066261,48.3613099 Z M64.1703542,9.76106394 C66.8542374,11.3238095 67.8982062,17.6252839 66.2118223,25.8891428 C66.1012888,26.4274833 65.9811342,26.9637648 65.8514171,27.4977251 C62.526183,26.7231562 58.915037,26.1466162 55.1343302,25.7885169 C52.9318149,22.6225605 50.6498402,19.7437997 48.3589973,17.2521444 C48.9592929,16.6679225 49.573874,16.0988464 50.2021716,15.5454429 C56.1197687,10.3465564 61.650356,8.29393087 64.1703542,9.76106394 Z" id="Shape" stroke="#53C1DE" stroke-width="1.5" fill="#FFFFFF"></path>
                    <path d="M45.9212963,33.814433 C49.8769756,33.814433 53.0833333,37.0316012 53.0833333,40.9998219 C53.0833333,44.9683988 49.8769756,48.185567 45.9212963,48.185567 C41.965972,48.185567 38.7592593,44.9683988 38.7592593,40.9998219 C38.7592593,37.0316012 41.965972,33.814433 45.9212963,33.814433" id="Shape" fill="#53C1DE"></path>
                </g>
            </g>
        </g>
    </g>
</svg>